G75*
%MOIN*%
%OFA0B0*%
%FSLAX25Y25*%
%IPPOS*%
%LPD*%
%AMOC8*
5,1,8,0,0,1.08239X$1,22.5*
%
%ADD10C,0.00600*%
%ADD11R,0.07000X0.07000*%
%ADD12C,0.07000*%
%ADD13C,0.05800*%
%ADD14R,0.01102X0.01693*%
%ADD15C,0.06000*%
%ADD16OC8,0.06000*%
%ADD17R,0.04921X0.02362*%
%ADD18R,0.02756X0.03543*%
%ADD19R,0.00984X0.01378*%
%ADD20R,0.01693X0.01102*%
%ADD21R,0.03937X0.03937*%
%ADD22C,0.05937*%
%ADD23C,0.06000*%
%ADD24C,0.02781*%
%ADD25C,0.05000*%
%ADD26C,0.01000*%
%ADD27C,0.04000*%
D10*
X0001667Y0095000D02*
X0326667Y0095000D01*
X0326667Y0240000D01*
X0001667Y0240000D01*
X0001667Y0095000D01*
X0031667Y0103500D02*
X0031767Y0103600D01*
X0046767Y0103600D01*
X0058667Y0115500D01*
X0058667Y0119000D01*
X0065567Y0125900D01*
X0107567Y0125900D01*
X0126667Y0145000D01*
X0130667Y0141000D02*
X0130667Y0168200D01*
X0142167Y0180100D01*
X0142167Y0197100D01*
X0142267Y0197200D01*
X0142167Y0197400D01*
X0145167Y0190200D02*
X0150967Y0196000D01*
X0150967Y0197400D01*
X0150867Y0197500D01*
X0145167Y0190200D02*
X0145167Y0179800D01*
X0132667Y0167300D01*
X0132667Y0139900D01*
X0124467Y0131700D01*
X0124467Y0102400D01*
X0123467Y0101400D01*
X0123467Y0101300D01*
X0121667Y0099700D01*
X0093367Y0099800D01*
X0089619Y0102947D01*
X0089619Y0104331D01*
X0086467Y0109700D02*
X0112067Y0109700D01*
X0114367Y0112000D01*
X0114367Y0126800D01*
X0125367Y0137800D01*
X0127067Y0137800D01*
X0130667Y0141000D01*
X0136667Y0145000D02*
X0136667Y0130900D01*
X0146967Y0120600D01*
X0264667Y0120600D01*
X0275767Y0109500D01*
X0275867Y0109500D01*
X0282367Y0103000D01*
X0291167Y0103000D01*
X0291667Y0103500D01*
X0291667Y0113500D02*
X0290367Y0114800D01*
X0274567Y0114800D01*
X0266567Y0122800D01*
X0157167Y0122800D01*
X0146667Y0133300D01*
X0146667Y0145000D01*
X0156667Y0145000D02*
X0156667Y0137200D01*
X0168467Y0125400D01*
X0289767Y0125400D01*
X0291667Y0123500D01*
X0291667Y0133500D02*
X0291167Y0134000D01*
X0250867Y0134000D01*
X0246667Y0138200D01*
X0246667Y0145000D01*
X0256667Y0145000D02*
X0230967Y0170700D01*
X0222367Y0170700D01*
X0214567Y0178500D01*
X0178867Y0178500D01*
X0170267Y0187100D01*
X0147867Y0187100D01*
X0138567Y0190100D02*
X0133267Y0195400D01*
X0106967Y0195400D01*
X0102567Y0199800D01*
X0102567Y0219500D01*
X0095067Y0227000D01*
X0031767Y0227000D01*
X0031767Y0217000D02*
X0064667Y0217000D01*
X0076667Y0205000D01*
X0082467Y0200800D02*
X0086667Y0205000D01*
X0082467Y0200800D02*
X0038067Y0200800D01*
X0031867Y0207000D01*
X0031767Y0207000D01*
X0031767Y0197000D02*
X0042067Y0197000D01*
X0049967Y0189100D01*
X0087667Y0189100D01*
X0091567Y0193000D01*
X0091567Y0199900D01*
X0096667Y0205000D01*
X0106667Y0205000D02*
X0106667Y0203900D01*
X0110567Y0200000D01*
X0163267Y0200000D01*
X0179167Y0184100D01*
X0220067Y0184100D01*
X0223867Y0180300D01*
X0257667Y0180300D01*
X0283167Y0154800D01*
X0283167Y0152100D01*
X0291667Y0143600D01*
X0291667Y0153600D02*
X0254767Y0190500D01*
X0177867Y0190500D01*
X0166667Y0201700D01*
X0166667Y0205000D01*
X0162867Y0212100D02*
X0159771Y0212100D01*
X0159671Y0212000D01*
X0157663Y0212000D02*
X0155671Y0212000D01*
X0155671Y0205996D01*
X0156667Y0205000D01*
X0152663Y0211000D02*
X0153663Y0212000D01*
X0152663Y0211000D02*
X0140867Y0211000D01*
X0135367Y0216500D01*
X0133667Y0216500D01*
X0144067Y0218100D02*
X0144067Y0213500D01*
X0144067Y0218100D02*
X0163267Y0234900D01*
X0190067Y0234900D01*
X0196767Y0227900D01*
X0186967Y0227700D02*
X0186767Y0227900D01*
X0186967Y0227700D02*
X0186867Y0221300D01*
X0180767Y0215200D01*
X0150967Y0215200D01*
X0152767Y0231000D02*
X0123367Y0231000D01*
X0109167Y0216800D01*
X0109167Y0215200D01*
X0106267Y0190300D02*
X0106126Y0190159D01*
X0106126Y0185300D01*
X0101726Y0189700D01*
X0093867Y0189700D01*
X0085567Y0181400D01*
X0085567Y0174200D01*
X0091967Y0167800D01*
X0097067Y0167800D01*
X0100708Y0171441D01*
X0100708Y0177300D01*
X0097867Y0180900D02*
X0110845Y0180900D01*
X0110945Y0180800D01*
X0113867Y0180800D01*
X0116567Y0183600D01*
X0116567Y0185700D01*
X0118582Y0187716D01*
X0118682Y0189000D01*
X0120651Y0189000D02*
X0120651Y0184803D01*
X0120588Y0184740D01*
X0120588Y0181000D02*
X0125263Y0181000D01*
X0125667Y0180596D01*
X0121263Y0176585D02*
X0121263Y0174000D01*
X0119071Y0174000D01*
X0117063Y0174000D02*
X0116863Y0173800D01*
X0111567Y0173800D01*
X0102567Y0164800D01*
X0091667Y0164800D01*
X0073067Y0183400D01*
X0056067Y0183400D01*
X0034567Y0159000D02*
X0029867Y0159000D01*
X0026667Y0155800D01*
X0026667Y0149900D01*
X0031767Y0144800D01*
X0031767Y0143500D01*
X0031667Y0143500D01*
X0040167Y0150100D02*
X0071267Y0150100D01*
X0076367Y0145000D01*
X0076667Y0145000D01*
X0079067Y0152400D02*
X0086567Y0144900D01*
X0086667Y0145000D01*
X0096667Y0145000D02*
X0096867Y0145000D01*
X0083967Y0132100D01*
X0064167Y0132100D01*
X0058067Y0126000D01*
X0038167Y0126000D01*
X0031867Y0132300D01*
X0031867Y0133600D01*
X0031767Y0133600D01*
X0031667Y0133500D01*
X0031667Y0123500D02*
X0059167Y0123500D01*
X0065467Y0129800D01*
X0091567Y0129800D01*
X0106767Y0145000D01*
X0106667Y0145000D01*
X0116667Y0145000D02*
X0116767Y0145100D01*
X0099567Y0127900D01*
X0065667Y0127900D01*
X0056867Y0119100D01*
X0056867Y0115800D01*
X0054567Y0113500D01*
X0031667Y0113500D01*
X0054663Y0133604D02*
X0058267Y0130100D01*
X0054663Y0133604D02*
X0054663Y0137400D01*
X0056667Y0137404D02*
X0056671Y0137400D01*
X0058463Y0137400D01*
X0058563Y0137500D01*
X0056667Y0137404D02*
X0056667Y0145000D01*
X0060571Y0137500D02*
X0062167Y0137500D01*
X0063763Y0137500D01*
X0063863Y0137400D01*
X0062167Y0137500D02*
X0062167Y0134700D01*
X0065871Y0137400D02*
X0068063Y0137400D01*
X0066667Y0138196D02*
X0065871Y0137400D01*
X0066667Y0138196D02*
X0066667Y0145000D01*
X0070071Y0137400D02*
X0070071Y0136196D01*
X0071767Y0134500D01*
X0065667Y0122700D02*
X0065667Y0122600D01*
X0067667Y0120600D01*
X0095067Y0120600D01*
X0099567Y0116100D01*
X0099567Y0114300D01*
X0099589Y0114300D01*
X0099619Y0114331D01*
X0100450Y0123500D02*
X0109619Y0114331D01*
X0100450Y0123500D02*
X0082867Y0123500D01*
X0086467Y0109700D02*
X0081097Y0104331D01*
X0079619Y0104331D01*
X0040167Y0150100D02*
X0037067Y0153200D01*
X0031667Y0153200D01*
X0031667Y0153500D01*
X0034567Y0159000D02*
X0041167Y0152400D01*
X0079067Y0152400D01*
X0092167Y0171200D02*
X0089967Y0173400D01*
X0089967Y0182000D01*
X0091404Y0183437D01*
X0093667Y0183437D01*
X0099145Y0183437D01*
X0101008Y0185300D01*
X0097867Y0180900D02*
X0093667Y0176700D01*
X0093667Y0175563D01*
X0105826Y0177300D02*
X0105866Y0177260D01*
X0110745Y0177260D01*
X0110845Y0180900D02*
X0110745Y0181000D01*
X0110745Y0184740D02*
X0106686Y0184740D01*
X0106126Y0185300D01*
X0117063Y0174000D02*
X0114263Y0171200D01*
X0120588Y0177260D02*
X0121263Y0176585D01*
X0123271Y0174000D02*
X0123271Y0170096D01*
X0123367Y0170000D01*
X0226667Y0204100D02*
X0234167Y0196600D01*
X0290667Y0196600D01*
X0292567Y0194700D01*
X0287067Y0204500D02*
X0282067Y0199500D01*
X0239167Y0199500D01*
X0236667Y0202000D01*
X0236667Y0205000D01*
X0246667Y0205000D02*
X0246667Y0214000D01*
X0258267Y0225600D01*
X0291467Y0225600D01*
X0292367Y0224700D01*
X0290567Y0216500D02*
X0292367Y0214700D01*
X0290567Y0216500D02*
X0259167Y0216500D01*
X0256667Y0214000D01*
X0256667Y0205000D01*
X0226667Y0205000D02*
X0226667Y0204100D01*
X0287067Y0204500D02*
X0292367Y0204500D01*
X0292567Y0204700D01*
D11*
X0069619Y0104331D03*
D12*
X0079619Y0104331D03*
X0089619Y0104331D03*
X0099619Y0104331D03*
X0109619Y0104331D03*
X0119619Y0104331D03*
X0129619Y0104331D03*
X0139619Y0104331D03*
X0149619Y0104331D03*
X0159619Y0104331D03*
X0169619Y0104331D03*
X0179619Y0104331D03*
X0189619Y0104331D03*
X0199619Y0104331D03*
X0209619Y0104331D03*
X0219619Y0104331D03*
X0219619Y0114331D03*
X0209619Y0114331D03*
X0199619Y0114331D03*
X0189619Y0114331D03*
X0179619Y0114331D03*
X0169619Y0114331D03*
X0159619Y0114331D03*
X0149619Y0114331D03*
X0139619Y0114331D03*
X0129619Y0114331D03*
X0119619Y0114331D03*
X0109619Y0114331D03*
X0099619Y0114331D03*
X0089619Y0114331D03*
X0079619Y0114331D03*
X0069619Y0114331D03*
X0229619Y0114331D03*
X0239619Y0114331D03*
X0249619Y0114331D03*
X0259619Y0114331D03*
X0259619Y0104331D03*
X0249619Y0104331D03*
X0239619Y0104331D03*
X0229619Y0104331D03*
D13*
X0226667Y0145000D03*
X0236667Y0145000D03*
X0246667Y0145000D03*
X0256667Y0145000D03*
X0266667Y0145000D03*
X0276667Y0145000D03*
X0226667Y0155000D03*
X0226667Y0165000D03*
X0226667Y0175000D03*
X0226667Y0185000D03*
X0226667Y0195000D03*
X0226667Y0205000D03*
X0236667Y0205000D03*
X0246667Y0205000D03*
X0256667Y0205000D03*
X0266667Y0205000D03*
X0276667Y0205000D03*
X0216667Y0205000D03*
X0206667Y0205000D03*
X0196667Y0205000D03*
X0186667Y0205000D03*
X0176667Y0205000D03*
X0166667Y0205000D03*
X0156667Y0205000D03*
X0146667Y0205000D03*
X0136667Y0205000D03*
X0126667Y0205000D03*
X0116667Y0205000D03*
X0106667Y0205000D03*
X0096667Y0205000D03*
X0086667Y0205000D03*
X0076667Y0205000D03*
X0066667Y0205000D03*
X0056667Y0205000D03*
X0046667Y0205000D03*
X0056667Y0195000D03*
X0076667Y0195000D03*
X0086667Y0195000D03*
X0096667Y0195000D03*
X0101667Y0157500D03*
X0091667Y0157500D03*
X0081667Y0157500D03*
X0071667Y0157500D03*
X0076667Y0145000D03*
X0086667Y0145000D03*
X0096667Y0145000D03*
X0106667Y0145000D03*
X0116667Y0145000D03*
X0126667Y0145000D03*
X0136667Y0145000D03*
X0146667Y0145000D03*
X0156667Y0145000D03*
X0166667Y0145000D03*
X0176667Y0145000D03*
X0186667Y0145000D03*
X0196667Y0145000D03*
X0206667Y0145000D03*
X0216667Y0145000D03*
X0111667Y0157500D03*
X0066667Y0145000D03*
X0056667Y0145000D03*
X0046667Y0145000D03*
D14*
X0054663Y0137400D03*
X0056671Y0137400D03*
X0058563Y0137500D03*
X0060571Y0137500D03*
X0063863Y0137400D03*
X0065871Y0137400D03*
X0068063Y0137400D03*
X0070071Y0137400D03*
X0117063Y0174000D03*
X0119071Y0174000D03*
X0121263Y0174000D03*
X0123271Y0174000D03*
X0153663Y0212000D03*
X0155671Y0212000D03*
X0157663Y0212000D03*
X0159671Y0212000D03*
D15*
X0031767Y0217000D03*
X0031767Y0197000D03*
X0031667Y0143500D03*
X0031667Y0123500D03*
X0031667Y0103500D03*
X0291667Y0113500D03*
X0291667Y0133500D03*
X0291667Y0153600D03*
X0292567Y0204700D03*
X0292367Y0214700D03*
D16*
X0302367Y0214700D03*
X0312367Y0214700D03*
X0312567Y0204700D03*
X0302567Y0204700D03*
X0302567Y0194700D03*
X0312567Y0194700D03*
X0292567Y0194700D03*
X0292367Y0224700D03*
X0302367Y0224700D03*
X0312367Y0224700D03*
X0311667Y0153600D03*
X0311667Y0143600D03*
X0301667Y0143600D03*
X0291667Y0143600D03*
X0301667Y0153600D03*
X0301667Y0133500D03*
X0311667Y0133500D03*
X0311667Y0123500D03*
X0311667Y0113500D03*
X0311667Y0103500D03*
X0301667Y0103500D03*
X0291667Y0103500D03*
X0301667Y0113500D03*
X0301667Y0123500D03*
X0291667Y0123500D03*
X0031667Y0113500D03*
X0021667Y0113500D03*
X0011667Y0113500D03*
X0011667Y0103500D03*
X0021667Y0103500D03*
X0021667Y0123500D03*
X0011667Y0123500D03*
X0011667Y0133500D03*
X0021667Y0133500D03*
X0031667Y0133500D03*
X0021667Y0143500D03*
X0011667Y0143500D03*
X0011667Y0153500D03*
X0021667Y0153500D03*
X0031667Y0153500D03*
X0021767Y0197000D03*
X0011767Y0197000D03*
X0011767Y0207000D03*
X0021767Y0207000D03*
X0031767Y0207000D03*
X0021767Y0217000D03*
X0011767Y0217000D03*
X0011767Y0227000D03*
X0021767Y0227000D03*
X0031767Y0227000D03*
D17*
X0110745Y0184740D03*
X0110745Y0181000D03*
X0110745Y0177260D03*
X0120588Y0177260D03*
X0120588Y0181000D03*
X0120588Y0184740D03*
D18*
X0106126Y0185300D03*
X0101008Y0185300D03*
X0100708Y0177300D03*
X0105826Y0177300D03*
D19*
X0118682Y0189000D03*
X0120651Y0189000D03*
D20*
X0125667Y0182604D03*
X0125667Y0180596D03*
D21*
X0093667Y0183437D03*
X0093667Y0175563D03*
D22*
X0123667Y0213531D02*
X0123667Y0219469D01*
X0133667Y0219469D02*
X0133667Y0213531D01*
D23*
X0166767Y0224900D02*
X0166767Y0230900D01*
X0176767Y0230900D02*
X0176767Y0224900D01*
X0186767Y0224900D02*
X0186767Y0230900D01*
X0196767Y0230900D02*
X0196767Y0224900D01*
D24*
X0207967Y0220500D03*
X0162867Y0212100D03*
X0150967Y0215200D03*
X0144067Y0213500D03*
X0142167Y0197400D03*
X0138567Y0190100D03*
X0130767Y0193100D03*
X0147867Y0187100D03*
X0150867Y0197500D03*
X0123367Y0170000D03*
X0114263Y0171200D03*
X0092167Y0171200D03*
X0106267Y0190300D03*
X0109167Y0215200D03*
X0108667Y0230200D03*
X0152767Y0231000D03*
X0056067Y0183400D03*
X0118067Y0152200D03*
X0082867Y0123500D03*
X0071767Y0134500D03*
X0062167Y0134700D03*
X0058267Y0130100D03*
X0065667Y0122700D03*
D25*
X0069619Y0114331D02*
X0079619Y0114331D01*
X0021667Y0113500D02*
X0021667Y0103500D01*
X0021667Y0113500D02*
X0021667Y0123500D01*
X0021667Y0133500D01*
X0021667Y0143500D01*
X0021667Y0153500D01*
X0021767Y0153600D01*
X0021767Y0197000D01*
X0021767Y0207000D01*
X0021767Y0217000D01*
X0021767Y0227000D01*
X0301667Y0153600D02*
X0301667Y0143600D01*
X0301667Y0133500D01*
X0301667Y0123500D01*
X0301667Y0113500D01*
X0301667Y0103500D01*
X0301667Y0153600D02*
X0302567Y0154500D01*
X0302567Y0194700D01*
X0302567Y0204700D01*
X0302367Y0204900D01*
X0302367Y0214700D01*
X0302367Y0224700D01*
D26*
X0130767Y0193100D02*
X0130767Y0187704D01*
X0125667Y0182604D01*
X0117063Y0174000D02*
X0116867Y0173804D01*
X0116867Y0169300D01*
X0118067Y0168100D01*
X0118067Y0152200D01*
D27*
X0207967Y0220500D02*
X0219167Y0231700D01*
X0295067Y0231700D01*
X0302067Y0224700D01*
X0302367Y0224700D01*
X0108667Y0230200D02*
X0103767Y0233000D01*
X0028867Y0233000D01*
X0022367Y0227000D01*
X0021767Y0227000D01*
M02*
