G75*
%MOIN*%
%OFA0B0*%
%FSLAX25Y25*%
%IPPOS*%
%LPD*%
%AMOC8*
5,1,8,0,0,1.08239X$1,22.5*
%
%ADD10C,0.00500*%
%ADD11C,0.00400*%
%ADD12C,0.01200*%
%ADD13R,0.01181X0.01181*%
%ADD14C,0.00600*%
%ADD15C,0.00197*%
%ADD16C,0.01000*%
D10*
X0064619Y0099331D02*
X0068369Y0099331D01*
X0068369Y0098081D01*
X0070869Y0098081D01*
X0070869Y0099331D01*
X0074619Y0099331D01*
X0074619Y0109331D01*
X0064619Y0109331D01*
X0064619Y0099331D01*
X0068369Y0099331D02*
X0070869Y0099331D01*
X0074619Y0099331D02*
X0264619Y0099331D01*
X0264619Y0119331D01*
X0064619Y0119331D01*
X0064619Y0109331D01*
X0066667Y0152500D02*
X0066667Y0162500D01*
X0076667Y0162500D01*
X0076667Y0152500D01*
X0066667Y0152500D01*
X0076667Y0152500D02*
X0116667Y0152500D01*
X0116667Y0162500D01*
X0076667Y0162500D01*
X0061667Y0162500D02*
X0056667Y0162500D01*
X0054538Y0163057D02*
X0056667Y0166250D01*
X0056667Y0167500D02*
X0061667Y0167500D01*
X0061667Y0162500D01*
X0053498Y0162500D02*
X0051667Y0162500D01*
X0051667Y0170000D01*
X0056667Y0170000D01*
X0061667Y0170000D01*
X0061667Y0172500D02*
X0056667Y0172500D01*
X0056667Y0175000D02*
X0061667Y0175000D01*
X0061667Y0177500D02*
X0056667Y0177500D01*
X0056667Y0180000D02*
X0051667Y0180000D01*
X0051667Y0187500D01*
X0053498Y0187500D01*
X0054538Y0186943D02*
X0056667Y0183750D01*
X0056667Y0182500D02*
X0061667Y0182500D01*
X0061667Y0187500D01*
X0056667Y0187500D01*
X0054538Y0186943D02*
X0054499Y0186999D01*
X0054456Y0187053D01*
X0054411Y0187104D01*
X0054363Y0187152D01*
X0054313Y0187198D01*
X0054260Y0187241D01*
X0054204Y0187281D01*
X0054147Y0187318D01*
X0054088Y0187352D01*
X0054027Y0187383D01*
X0053964Y0187410D01*
X0053900Y0187434D01*
X0053835Y0187454D01*
X0053769Y0187470D01*
X0053702Y0187483D01*
X0053634Y0187493D01*
X0053566Y0187498D01*
X0053498Y0187500D01*
X0046667Y0186250D02*
X0046667Y0183750D01*
X0046665Y0183682D01*
X0046660Y0183615D01*
X0046651Y0183548D01*
X0046638Y0183481D01*
X0046621Y0183416D01*
X0046602Y0183351D01*
X0046578Y0183287D01*
X0046551Y0183225D01*
X0046521Y0183164D01*
X0046488Y0183106D01*
X0046452Y0183049D01*
X0046412Y0182994D01*
X0046370Y0182941D01*
X0046324Y0182890D01*
X0046277Y0182843D01*
X0046226Y0182797D01*
X0046173Y0182755D01*
X0046118Y0182715D01*
X0046061Y0182679D01*
X0046003Y0182646D01*
X0045942Y0182616D01*
X0045880Y0182589D01*
X0045816Y0182565D01*
X0045751Y0182546D01*
X0045686Y0182529D01*
X0045619Y0182516D01*
X0045552Y0182507D01*
X0045485Y0182502D01*
X0045417Y0182500D01*
X0039167Y0182500D01*
X0039167Y0187500D01*
X0045417Y0187500D01*
X0045485Y0187498D01*
X0045552Y0187493D01*
X0045619Y0187484D01*
X0045686Y0187471D01*
X0045751Y0187454D01*
X0045816Y0187435D01*
X0045880Y0187411D01*
X0045942Y0187384D01*
X0046003Y0187354D01*
X0046061Y0187321D01*
X0046118Y0187285D01*
X0046173Y0187245D01*
X0046226Y0187203D01*
X0046277Y0187157D01*
X0046324Y0187110D01*
X0046370Y0187059D01*
X0046412Y0187006D01*
X0046452Y0186951D01*
X0046488Y0186894D01*
X0046521Y0186836D01*
X0046551Y0186775D01*
X0046578Y0186713D01*
X0046602Y0186649D01*
X0046621Y0186584D01*
X0046638Y0186519D01*
X0046651Y0186452D01*
X0046660Y0186385D01*
X0046665Y0186318D01*
X0046667Y0186250D01*
X0056667Y0180000D02*
X0061667Y0180000D01*
X0046667Y0166250D02*
X0046667Y0163750D01*
X0046665Y0163682D01*
X0046660Y0163615D01*
X0046651Y0163548D01*
X0046638Y0163481D01*
X0046621Y0163416D01*
X0046602Y0163351D01*
X0046578Y0163287D01*
X0046551Y0163225D01*
X0046521Y0163164D01*
X0046488Y0163106D01*
X0046452Y0163049D01*
X0046412Y0162994D01*
X0046370Y0162941D01*
X0046324Y0162890D01*
X0046277Y0162843D01*
X0046226Y0162797D01*
X0046173Y0162755D01*
X0046118Y0162715D01*
X0046061Y0162679D01*
X0046003Y0162646D01*
X0045942Y0162616D01*
X0045880Y0162589D01*
X0045816Y0162565D01*
X0045751Y0162546D01*
X0045686Y0162529D01*
X0045619Y0162516D01*
X0045552Y0162507D01*
X0045485Y0162502D01*
X0045417Y0162500D01*
X0039167Y0162500D01*
X0039167Y0167500D01*
X0045417Y0167500D01*
X0045485Y0167498D01*
X0045552Y0167493D01*
X0045619Y0167484D01*
X0045686Y0167471D01*
X0045751Y0167454D01*
X0045816Y0167435D01*
X0045880Y0167411D01*
X0045942Y0167384D01*
X0046003Y0167354D01*
X0046061Y0167321D01*
X0046118Y0167285D01*
X0046173Y0167245D01*
X0046226Y0167203D01*
X0046277Y0167157D01*
X0046324Y0167110D01*
X0046370Y0167059D01*
X0046412Y0167006D01*
X0046452Y0166951D01*
X0046488Y0166894D01*
X0046521Y0166836D01*
X0046551Y0166775D01*
X0046578Y0166713D01*
X0046602Y0166649D01*
X0046621Y0166584D01*
X0046638Y0166519D01*
X0046651Y0166452D01*
X0046660Y0166385D01*
X0046665Y0166318D01*
X0046667Y0166250D01*
X0053498Y0162500D02*
X0053566Y0162502D01*
X0053634Y0162507D01*
X0053702Y0162517D01*
X0053769Y0162530D01*
X0053835Y0162546D01*
X0053900Y0162566D01*
X0053964Y0162590D01*
X0054027Y0162617D01*
X0054088Y0162648D01*
X0054147Y0162682D01*
X0054204Y0162719D01*
X0054260Y0162759D01*
X0054313Y0162802D01*
X0054363Y0162848D01*
X0054411Y0162896D01*
X0054456Y0162947D01*
X0054499Y0163001D01*
X0054538Y0163057D01*
X0049167Y0160000D02*
X0049167Y0155000D01*
X0044167Y0155000D01*
X0044167Y0160000D01*
X0157517Y0225650D02*
X0160017Y0225650D01*
X0158767Y0225650D02*
X0158767Y0230150D01*
X0157517Y0229150D01*
X0203017Y0226650D02*
X0205517Y0226650D01*
X0204767Y0227650D02*
X0204767Y0225650D01*
X0203017Y0226650D02*
X0204017Y0230150D01*
X0290117Y0206950D02*
X0291367Y0207950D01*
X0291367Y0203450D01*
X0290117Y0203450D02*
X0292617Y0203450D01*
X0318617Y0223700D02*
X0318617Y0224950D01*
X0320117Y0224950D01*
X0318617Y0224950D02*
X0318619Y0225037D01*
X0318625Y0225124D01*
X0318634Y0225211D01*
X0318647Y0225297D01*
X0318664Y0225383D01*
X0318685Y0225468D01*
X0318710Y0225551D01*
X0318738Y0225634D01*
X0318769Y0225715D01*
X0318804Y0225795D01*
X0318843Y0225873D01*
X0318885Y0225950D01*
X0318930Y0226025D01*
X0318979Y0226097D01*
X0319030Y0226168D01*
X0319085Y0226236D01*
X0319142Y0226301D01*
X0319203Y0226364D01*
X0319266Y0226425D01*
X0319331Y0226482D01*
X0319399Y0226537D01*
X0319470Y0226588D01*
X0319542Y0226637D01*
X0319617Y0226682D01*
X0319694Y0226724D01*
X0319772Y0226763D01*
X0319852Y0226798D01*
X0319933Y0226829D01*
X0320016Y0226857D01*
X0320099Y0226882D01*
X0320184Y0226903D01*
X0320270Y0226920D01*
X0320356Y0226933D01*
X0320443Y0226942D01*
X0320530Y0226948D01*
X0320617Y0226950D01*
X0321117Y0223950D02*
X0321117Y0223700D01*
X0321117Y0223950D02*
X0321115Y0224010D01*
X0321110Y0224071D01*
X0321101Y0224130D01*
X0321088Y0224189D01*
X0321072Y0224248D01*
X0321052Y0224305D01*
X0321029Y0224360D01*
X0321002Y0224415D01*
X0320973Y0224467D01*
X0320940Y0224518D01*
X0320904Y0224567D01*
X0320866Y0224613D01*
X0320824Y0224657D01*
X0320780Y0224699D01*
X0320734Y0224737D01*
X0320685Y0224773D01*
X0320634Y0224806D01*
X0320582Y0224835D01*
X0320527Y0224862D01*
X0320472Y0224885D01*
X0320415Y0224905D01*
X0320356Y0224921D01*
X0320297Y0224934D01*
X0320238Y0224943D01*
X0320177Y0224948D01*
X0320117Y0224950D01*
X0321117Y0223700D02*
X0321115Y0223631D01*
X0321109Y0223562D01*
X0321100Y0223494D01*
X0321087Y0223427D01*
X0321070Y0223360D01*
X0321049Y0223294D01*
X0321025Y0223230D01*
X0320997Y0223167D01*
X0320966Y0223105D01*
X0320932Y0223045D01*
X0320894Y0222988D01*
X0320853Y0222932D01*
X0320810Y0222879D01*
X0320763Y0222828D01*
X0320714Y0222780D01*
X0320662Y0222735D01*
X0320607Y0222693D01*
X0320551Y0222654D01*
X0320492Y0222617D01*
X0320431Y0222585D01*
X0320369Y0222555D01*
X0320305Y0222529D01*
X0320240Y0222507D01*
X0320174Y0222488D01*
X0320107Y0222473D01*
X0320039Y0222462D01*
X0319970Y0222454D01*
X0319901Y0222450D01*
X0319833Y0222450D01*
X0319764Y0222454D01*
X0319695Y0222462D01*
X0319627Y0222473D01*
X0319560Y0222488D01*
X0319494Y0222507D01*
X0319429Y0222529D01*
X0319365Y0222555D01*
X0319303Y0222585D01*
X0319242Y0222617D01*
X0319183Y0222654D01*
X0319127Y0222693D01*
X0319072Y0222735D01*
X0319020Y0222780D01*
X0318971Y0222828D01*
X0318924Y0222879D01*
X0318881Y0222932D01*
X0318840Y0222988D01*
X0318802Y0223045D01*
X0318768Y0223105D01*
X0318737Y0223167D01*
X0318709Y0223230D01*
X0318685Y0223294D01*
X0318664Y0223360D01*
X0318647Y0223427D01*
X0318634Y0223494D01*
X0318625Y0223562D01*
X0318619Y0223631D01*
X0318617Y0223700D01*
D11*
X0070569Y0093281D02*
X0068569Y0093281D01*
X0069569Y0093281D02*
X0069569Y0096881D01*
X0068569Y0096081D01*
D12*
X0041667Y0140000D02*
X0041667Y0160000D01*
X0044167Y0160000D01*
X0049167Y0160000D01*
X0056667Y0160000D01*
X0056667Y0162500D01*
X0056667Y0166250D01*
X0056667Y0167500D01*
X0056667Y0170000D01*
X0056667Y0172500D01*
X0056667Y0175000D01*
X0056667Y0177500D01*
X0056667Y0180000D01*
X0056667Y0182500D01*
X0056667Y0183750D01*
X0056667Y0187500D01*
X0056667Y0190000D01*
X0049167Y0190000D01*
X0044167Y0190000D01*
X0041667Y0190000D01*
X0041667Y0210000D01*
X0281667Y0210000D01*
X0281667Y0140000D01*
X0041667Y0140000D01*
X0041667Y0160000D02*
X0036667Y0160000D01*
X0036667Y0190000D01*
X0041667Y0190000D01*
D13*
X0055667Y0137400D03*
X0059567Y0137500D03*
X0064867Y0137400D03*
X0069067Y0137400D03*
X0118067Y0174000D03*
X0122267Y0174000D03*
X0125667Y0181600D03*
X0154667Y0212000D03*
X0158667Y0212000D03*
D14*
X0164267Y0222900D02*
X0169267Y0222900D01*
X0171767Y0225400D01*
X0174267Y0222900D01*
X0179267Y0222900D01*
X0181767Y0225400D01*
X0184267Y0222900D01*
X0189267Y0222900D01*
X0191767Y0225400D01*
X0194267Y0222900D01*
X0199267Y0222900D01*
X0201767Y0225400D01*
X0201767Y0230400D01*
X0199267Y0232900D01*
X0194267Y0232900D01*
X0191767Y0230400D01*
X0189267Y0232900D01*
X0184267Y0232900D01*
X0181767Y0230400D01*
X0179267Y0232900D01*
X0174267Y0232900D01*
X0171767Y0230400D01*
X0169267Y0232900D01*
X0164267Y0232900D01*
X0161767Y0230400D01*
X0161767Y0225400D01*
X0164267Y0222900D01*
X0287367Y0227200D02*
X0287367Y0212200D01*
X0289867Y0209700D01*
X0294867Y0209700D01*
X0297367Y0212200D01*
X0299867Y0209700D01*
X0304867Y0209700D01*
X0307367Y0212200D01*
X0309867Y0209700D01*
X0314867Y0209700D01*
X0317367Y0212200D01*
X0317367Y0227200D01*
X0314867Y0229700D01*
X0309867Y0229700D01*
X0307367Y0227200D01*
X0304867Y0229700D01*
X0299867Y0229700D01*
X0297367Y0227200D01*
X0294867Y0229700D01*
X0289867Y0229700D01*
X0287367Y0227200D01*
D15*
X0124033Y0187988D02*
X0124033Y0174012D01*
X0107301Y0174012D01*
X0107301Y0187988D01*
X0124033Y0187988D01*
D16*
X0118667Y0204000D02*
X0118667Y0211500D01*
X0138667Y0211500D01*
X0138667Y0204000D01*
X0118667Y0204000D01*
X0118667Y0211500D02*
X0118667Y0229000D01*
X0138667Y0229000D01*
X0138667Y0211500D01*
M02*
