G75*
%MOIN*%
%OFA0B0*%
%FSLAX25Y25*%
%IPPOS*%
%LPD*%
%AMOC8*
5,1,8,0,0,1.08239X$1,22.5*
%
%ADD10R,0.07800X0.07800*%
%ADD11C,0.07800*%
%ADD12C,0.06600*%
%ADD13C,0.06800*%
%ADD14OC8,0.06800*%
%ADD15C,0.06737*%
%ADD16C,0.06800*%
%ADD17C,0.03581*%
D10*
X0069619Y0104331D03*
D11*
X0079619Y0104331D03*
X0089619Y0104331D03*
X0099619Y0104331D03*
X0109619Y0104331D03*
X0119619Y0104331D03*
X0129619Y0104331D03*
X0139619Y0104331D03*
X0149619Y0104331D03*
X0159619Y0104331D03*
X0169619Y0104331D03*
X0179619Y0104331D03*
X0189619Y0104331D03*
X0199619Y0104331D03*
X0209619Y0104331D03*
X0219619Y0104331D03*
X0219619Y0114331D03*
X0209619Y0114331D03*
X0199619Y0114331D03*
X0189619Y0114331D03*
X0179619Y0114331D03*
X0169619Y0114331D03*
X0159619Y0114331D03*
X0149619Y0114331D03*
X0139619Y0114331D03*
X0129619Y0114331D03*
X0119619Y0114331D03*
X0109619Y0114331D03*
X0099619Y0114331D03*
X0089619Y0114331D03*
X0079619Y0114331D03*
X0069619Y0114331D03*
X0229619Y0114331D03*
X0239619Y0114331D03*
X0249619Y0114331D03*
X0259619Y0114331D03*
X0259619Y0104331D03*
X0249619Y0104331D03*
X0239619Y0104331D03*
X0229619Y0104331D03*
D12*
X0226667Y0145000D03*
X0236667Y0145000D03*
X0246667Y0145000D03*
X0256667Y0145000D03*
X0266667Y0145000D03*
X0276667Y0145000D03*
X0226667Y0155000D03*
X0226667Y0165000D03*
X0226667Y0175000D03*
X0226667Y0185000D03*
X0226667Y0195000D03*
X0226667Y0205000D03*
X0236667Y0205000D03*
X0246667Y0205000D03*
X0256667Y0205000D03*
X0266667Y0205000D03*
X0276667Y0205000D03*
X0216667Y0205000D03*
X0206667Y0205000D03*
X0196667Y0205000D03*
X0186667Y0205000D03*
X0176667Y0205000D03*
X0166667Y0205000D03*
X0156667Y0205000D03*
X0146667Y0205000D03*
X0136667Y0205000D03*
X0126667Y0205000D03*
X0116667Y0205000D03*
X0106667Y0205000D03*
X0096667Y0205000D03*
X0086667Y0205000D03*
X0076667Y0205000D03*
X0066667Y0205000D03*
X0056667Y0205000D03*
X0046667Y0205000D03*
X0056667Y0195000D03*
X0076667Y0195000D03*
X0086667Y0195000D03*
X0096667Y0195000D03*
X0101667Y0157500D03*
X0091667Y0157500D03*
X0081667Y0157500D03*
X0071667Y0157500D03*
X0076667Y0145000D03*
X0086667Y0145000D03*
X0096667Y0145000D03*
X0106667Y0145000D03*
X0116667Y0145000D03*
X0126667Y0145000D03*
X0136667Y0145000D03*
X0146667Y0145000D03*
X0156667Y0145000D03*
X0166667Y0145000D03*
X0176667Y0145000D03*
X0186667Y0145000D03*
X0196667Y0145000D03*
X0206667Y0145000D03*
X0216667Y0145000D03*
X0111667Y0157500D03*
X0066667Y0145000D03*
X0056667Y0145000D03*
X0046667Y0145000D03*
D13*
X0031667Y0143500D03*
X0031667Y0123500D03*
X0031667Y0103500D03*
X0031767Y0197000D03*
X0031767Y0217000D03*
X0291667Y0153600D03*
X0291667Y0133500D03*
X0291667Y0113500D03*
X0292567Y0204700D03*
X0292367Y0214700D03*
D14*
X0011667Y0103500D03*
X0021667Y0103500D03*
X0021667Y0113500D03*
X0031667Y0113500D03*
X0021667Y0123500D03*
X0011667Y0123500D03*
X0011667Y0113500D03*
X0011667Y0133500D03*
X0021667Y0133500D03*
X0031667Y0133500D03*
X0021667Y0143500D03*
X0011667Y0143500D03*
X0011667Y0153500D03*
X0021667Y0153500D03*
X0031667Y0153500D03*
X0021767Y0197000D03*
X0011767Y0197000D03*
X0011767Y0207000D03*
X0021767Y0207000D03*
X0031767Y0207000D03*
X0021767Y0217000D03*
X0011767Y0217000D03*
X0011767Y0227000D03*
X0021767Y0227000D03*
X0031767Y0227000D03*
X0291667Y0143600D03*
X0301667Y0143600D03*
X0311667Y0143600D03*
X0311667Y0153600D03*
X0301667Y0153600D03*
X0301667Y0133500D03*
X0311667Y0133500D03*
X0311667Y0123500D03*
X0311667Y0113500D03*
X0311667Y0103500D03*
X0301667Y0103500D03*
X0291667Y0103500D03*
X0301667Y0113500D03*
X0301667Y0123500D03*
X0291667Y0123500D03*
X0292567Y0194700D03*
X0302567Y0194700D03*
X0312567Y0194700D03*
X0312567Y0204700D03*
X0302567Y0204700D03*
X0302367Y0214700D03*
X0312367Y0214700D03*
X0312367Y0224700D03*
X0302367Y0224700D03*
X0292367Y0224700D03*
D15*
X0133667Y0219469D02*
X0133667Y0213531D01*
X0123667Y0213531D02*
X0123667Y0219469D01*
D16*
X0166767Y0224900D02*
X0166767Y0230900D01*
X0176767Y0230900D02*
X0176767Y0224900D01*
X0186767Y0224900D02*
X0186767Y0230900D01*
X0196767Y0230900D02*
X0196767Y0224900D01*
D17*
X0207967Y0220500D03*
X0162867Y0212100D03*
X0150967Y0215200D03*
X0144067Y0213500D03*
X0142167Y0197400D03*
X0138567Y0190100D03*
X0130767Y0193100D03*
X0147867Y0187100D03*
X0150867Y0197500D03*
X0123367Y0170000D03*
X0114263Y0171200D03*
X0092167Y0171200D03*
X0106267Y0190300D03*
X0109167Y0215200D03*
X0108667Y0230200D03*
X0152767Y0231000D03*
X0056067Y0183400D03*
X0118067Y0152200D03*
X0082867Y0123500D03*
X0071767Y0134500D03*
X0062167Y0134700D03*
X0058267Y0130100D03*
X0065667Y0122700D03*
M02*
