%
M48
M72
T01C0.01181
T02C0.03800
T03C0.03937
T04C0.04000
%
T01
X65667Y122700
X58267Y130100
X62167Y134700
X71767Y134500
X82867Y123500
X118067Y152200
X123367Y170000
X114263Y171200
X92167Y171200
X106267Y190300
X130767Y193100
X138567Y190100
X142167Y197400
X150867Y197500
X147867Y187100
X162867Y212100
X150967Y215200
X144067Y213500
X152767Y231000
X108667Y230200
X109167Y215200
X56067Y183400
X207967Y220500
T02
X206667Y205000
X216667Y205000
X226667Y205000
X236667Y205000
X246667Y205000
X256667Y205000
X266667Y205000
X276667Y205000
X226667Y195000
X226667Y185000
X226667Y175000
X226667Y165000
X226667Y155000
X226667Y145000
X236667Y145000
X246667Y145000
X256667Y145000
X266667Y145000
X276667Y145000
X216667Y145000
X206667Y145000
X196667Y145000
X186667Y145000
X176667Y145000
X166667Y145000
X156667Y145000
X146667Y145000
X136667Y145000
X126667Y145000
X116667Y145000
X106667Y145000
X96667Y145000
X86667Y145000
X76667Y145000
X66667Y145000
X56667Y145000
X46667Y145000
X71667Y157500
X81667Y157500
X91667Y157500
X101667Y157500
X111667Y157500
X96667Y195000
X86667Y195000
X76667Y195000
X76667Y205000
X86667Y205000
X96667Y205000
X106667Y205000
X116667Y205000
X126667Y205000
X136667Y205000
X146667Y205000
X156667Y205000
X166667Y205000
X176667Y205000
X186667Y205000
X196667Y205000
X66667Y205000
X56667Y205000
X46667Y205000
X56667Y195000
T03
X123667Y216500
X133667Y216500
X129619Y114331
X119619Y114331
X109619Y114331
X99619Y114331
X89619Y114331
X79619Y114331
X69619Y114331
X69619Y104331
X79619Y104331
X89619Y104331
X99619Y104331
X109619Y104331
X119619Y104331
X129619Y104331
X139619Y104331
X149619Y104331
X159619Y104331
X169619Y104331
X179619Y104331
X189619Y104331
X199619Y104331
X209619Y104331
X219619Y104331
X219619Y114331
X209619Y114331
X199619Y114331
X189619Y114331
X179619Y114331
X169619Y114331
X159619Y114331
X149619Y114331
X139619Y114331
X229619Y114331
X239619Y114331
X249619Y114331
X259619Y114331
X259619Y104331
X249619Y104331
X239619Y104331
X229619Y104331
T04
X11667Y103500
X21667Y103500
X31667Y103500
X31667Y113500
X21667Y113500
X11667Y113500
X11667Y123500
X21667Y123500
X31667Y123500
X31667Y133500
X21667Y133500
X11667Y133500
X11667Y143500
X21667Y143500
X31667Y143500
X31667Y153500
X21667Y153500
X11667Y153500
X11767Y197000
X21767Y197000
X31767Y197000
X31767Y207000
X21767Y207000
X11767Y207000
X11767Y217000
X21767Y217000
X31767Y217000
X31767Y227000
X21767Y227000
X11767Y227000
X166767Y227900
X176767Y227900
X186767Y227900
X196767Y227900
X292367Y224700
X302367Y224700
X312367Y224700
X312367Y214700
X302367Y214700
X292367Y214700
X292567Y204700
X302567Y204700
X312567Y204700
X312567Y194700
X302567Y194700
X292567Y194700
X291667Y153600
X301667Y153600
X311667Y153600
X311667Y143600
X301667Y143600
X291667Y143600
X291667Y133500
X301667Y133500
X311667Y133500
X311667Y123500
X311667Y113500
X311667Y103500
X301667Y103500
X291667Y103500
X291667Y113500
X301667Y113500
X301667Y123500
X291667Y123500
M30
